<mxfile host="app.diagrams.net" modified="2023-08-22T00:03:59.999Z" agent="Mozilla/5.0 (Windows NT 10.0; Win64; x64) AppleWebKit/537.36 (KHTML, like Gecko) Chrome/116.0.0.0 Safari/537.36" version="21.6.8" etag="pbSm3-qniqT30nYHGXr3" type="github">
  <diagram name="PÃ¡gina-1" id="oEASX8YWa9x8vc0f7FFo">
    <mxGraphModel>
      <root>
        <mxCell id="0" />
        <mxCell id="1" parent="0" />
      </root>
    </mxGraphModel>
  </diagram>
</mxfile>
